<svg viewBox="0 0 170 36" fill="none" xmlns="http://www.w3.org/2000/svg"><path d="M147.14 17.24h-4.2v4.6q-.38.18-.77.3-.86.26-1.8.26-1.27 0-2.28-.5l-.2-.1q-.52-.3-.94-.72-.43-.43-.74-1l-.08-.14q-.52-1.04-.52-2.34 0-1.66.77-2.81.24-.37.55-.68.34-.33.72-.58 1.15-.73 2.77-.73.95 0 1.79.3 1.26.45 2.29 1.57l3.02-2.73q-.36-.43-.78-.8-1.01-.92-2.34-1.48-1.87-.8-4.22-.8-2.56 0-4.62 1.02l-.21.1q-1.31.68-2.27 1.7-.6.64-1.06 1.4-.28.46-.49.94-.72 1.63-.72 3.58 0 1.94.72 3.57.21.49.49.94.49.81 1.13 1.48.93.97 2.18 1.63l.38.2q1.97.91 4.37.91h.13q1.81-.02 3.61-.55 1.88-.55 3.32-1.58v-6.96Zm7.51 8.13q2 .96 4.46.96t4.45-.95l.34-.17q1.3-.7 2.27-1.72.6-.64 1.07-1.4.32-.54.56-1.12.65-1.55.65-3.37t-.65-3.37q-.24-.58-.56-1.12-.48-.78-1.09-1.42-.96-1.01-2.25-1.7l-.38-.18q-1.98-.95-4.4-.95-2.45 0-4.44.95l-.36.18q-1.28.68-2.23 1.67-.62.66-1.1 1.45-.33.54-.57 1.12-.65 1.55-.65 3.37t.65 3.37q.24.58.57 1.12.47.78 1.09 1.43.95 1 2.24 1.69.16.09.33.16Zm6.2-3.3q-.8.33-1.74.33-.92 0-1.71-.31-.3-.12-.6-.29-.36-.2-.67-.48-.57-.5-.96-1.2l-.01-.03q-.59-1.09-.59-2.5 0-1.39.59-2.47l.01-.02q.4-.74 1-1.24.3-.26.64-.46.3-.17.62-.3.78-.3 1.68-.3.92 0 1.72.32.3.12.59.28.35.2.65.47.58.5.98 1.23l.03.06q.57 1.06.57 2.44t-.58 2.46l-.02.05q-.39.7-.94 1.2-.32.28-.7.5-.26.15-.55.27Z" fill="#333" fill-rule="evenodd"/><path d="M124 18c0 2.87-.6 5.59-1.66 8h-13.34c2.46-3.77 5-8.34 5-13a13 13 0 0 0-9.58-12.55c1.15-.3 2.35-.45 3.58-.45 8.84 0 16 8.06 16 18Zm-14-5a9 9 0 0 0-9-9c-6.65 0-9 8.5-9 14 0 9.94 7.16 18 16 18 4.74 0 9-2.32 11.93-6h-18.93l1.1-1.39c3.52-4.4 7.9-9.91 7.9-15.61Z" fill="#7859CF" fill-rule="evenodd"/><path d="M10.59 9.2h-7.94v16.8h7.94q2.76 0 4.9-1.03 1.5-.73 2.53-1.88.43-.48.78-1.05l.19-.32q.99-1.79.99-4.12t-.99-4.1l-.2-.34q-.35-.58-.8-1.07-1.01-1.14-2.5-1.86-2.14-1.03-4.9-1.03Zm17.12 12.34h2.59l3.04 4.46h5.1l-3.63-5.28q1.27-.62 2.07-1.62.2-.24.36-.5.1-.15.17-.3.68-1.26.68-2.88 0-1.66-.7-2.94l-.21-.36q-.19-.3-.41-.56-.85-1-2.18-1.6-1.68-.76-3.96-.76h-7.68v16.8h4.76v-4.46Zm18.24-12.34h-4.76v16.8h4.76v-16.8Zm19.84 16.8v-16.8h-4.65v8.95l-7.42-8.95h-3.91v16.8h4.65v-8.95l7.42 8.95h3.91Zm8.55-4.2 1.77-1.9 4.8 6.1h5.52l-7.22-9.36 6.86-7.44h-5.23l-6.5 6.99v-6.99h-4.7v16.8h4.7v-4.2Zm-41.46-7.85q.42.59.42 1.47 0 .87-.42 1.45-.14.2-.33.36-.74.63-2.2.63h-2.64v-4.91h2.63q1.47 0 2.21.65.19.16.33.35Zm-19.5 7.43q-1.2.83-2.98.83h-3v-9.22h3q1.78 0 2.98.83.26.18.48.4.3.27.53.6.79 1.1.79 2.78 0 1.68-.8 2.8-.23.31-.52.58-.22.22-.48.4Z" fill="#333" fill-rule="evenodd"/></svg>