<svg viewBox="0 0 82 36" fill="none" xmlns="http://www.w3.org/2000/svg"><path d="M81.14 17.24h-4.2v4.6q-.38.18-.77.3-.86.26-1.8.26-1.27 0-2.28-.5l-.2-.1q-.52-.3-.94-.72-.43-.43-.74-1l-.08-.14q-.52-1.04-.52-2.34 0-1.66.77-2.81.24-.37.55-.68.34-.33.72-.58 1.15-.73 2.77-.73.95 0 1.79.3 1.26.45 2.29 1.57l3.02-2.73q-.36-.43-.78-.8-1.01-.92-2.34-1.48-1.87-.8-4.22-.8-2.56 0-4.62 1.02l-.21.1q-1.31.68-2.27 1.7-.6.64-1.06 1.4-.28.46-.49.94-.72 1.63-.72 3.58 0 1.94.72 3.57.21.49.49.94.49.81 1.13 1.48.93.97 2.18 1.63l.38.2q1.97.91 4.37.91h.13q1.81-.02 3.61-.55 1.88-.55 3.32-1.58v-6.96Z" fill="#333" fill-rule="evenodd"/><path d="M58 18c0 2.87-.6 5.59-1.66 8h-13.34c2.46-3.77 5-8.34 5-13a13 13 0 0 0-9.58-12.55c1.15-.3 2.35-.45 3.58-.45 8.84 0 16 8.06 16 18Zm-14-5a9 9 0 0 0-9-9c-6.65 0-9 8.5-9 14 0 9.94 7.16 18 16 18 4.74 0 9-2.32 11.93-6h-18.93l1.1-1.39c3.52-4.4 7.9-9.91 7.9-15.61Z" fill="#7859CF" fill-rule="evenodd"/><path d="M9.8 9.2h-7.94v16.8h7.94q2.76 0 4.9-1.03 1.5-.73 2.53-1.88.43-.48.78-1.05l.19-.32q.98-1.79.98-4.12t-.98-4.1l-.2-.34q-.35-.58-.8-1.07-1.02-1.14-2.5-1.86-2.14-1.03-4.9-1.03Zm2.79 12.18q-1.2.83-2.98.83h-3v-9.22h3q1.78 0 2.98.83.25.18.48.4.3.27.53.6.79 1.1.79 2.78 0 1.68-.8 2.8-.23.31-.52.58-.23.22-.48.4Z" fill="#333" fill-rule="evenodd"/></svg>